<svg width="20" height="20" viewBox="0 0 20 20" fill="none" xmlns="http://www.w3.org/2000/svg">
<path d="M14.1 6.00479V6.4554L14.5481 6.5021C15.7987 6.63241 16.6159 6.99708 17.135 7.55369C17.8791 8.36937 17.8892 9.48543 17.7884 10.3715L17.1291 15.4915L17.1291 15.4915L17.1281 15.5C17.0336 16.3491 16.8176 17.1067 16.229 17.665C15.6412 18.2226 14.5902 18.6666 12.6303 18.6666H7.37178C5.41192 18.6666 4.36109 18.2225 3.77345 17.6642C3.18486 17.1049 2.9686 16.3451 2.87405 15.4911L2.87413 15.4911L2.87296 15.4821L2.2138 10.3809C2.11237 9.48079 2.11528 8.36849 2.86624 7.55461C3.3853 6.99748 4.20278 6.63248 5.454 6.5021L5.90217 6.4554V6.00479V5.47319C5.90217 3.43309 7.6065 1.53808 9.59465 1.35162C10.7711 1.24477 11.8961 1.60636 12.7602 2.37337L12.7602 2.37338L12.7624 2.3753C13.6162 3.12426 14.1 4.19748 14.1 5.30821V6.00479ZM9.63705 1.62965L9.63453 1.62988C8.69448 1.71695 7.84113 2.22073 7.22847 2.91203C6.61544 3.60376 6.2121 4.51796 6.2121 5.47319V5.9498V6.4498H6.7121H13.29H13.79V5.9498V5.30821C13.79 4.26606 13.3417 3.2679 12.5461 2.56824C11.7423 1.86041 10.7105 1.53569 9.63705 1.62965ZM6.61786 11.555H6.62729C7.40856 11.555 8.06968 10.9317 8.06968 10.1385C8.06968 9.34203 7.40527 8.72192 6.61786 8.72192C5.8366 8.72192 5.17547 9.34521 5.17547 10.1385C5.17547 10.9317 5.8366 11.555 6.61786 11.555ZM13.2146 11.555H13.2241C14.0053 11.555 14.6665 10.9317 14.6665 10.1385C14.6665 9.34203 14.002 8.72192 13.2146 8.72192C12.4334 8.72192 11.7722 9.34521 11.7722 10.1385C11.7722 10.9317 12.4334 11.555 13.2146 11.555Z" fill="#1A1A1A" stroke="#1A1A1A"/>
</svg>
