<svg width="140" height="140" viewBox="0 0 140 140" fill="none" xmlns="http://www.w3.org/2000/svg">
<circle cx="70" cy="70" r="70" fill="#CECECE"/>
<path d="M108.244 64.1118L87.322 63.5723L68.5539 63.0883L47.6322 62.5488C47.131 62.5359 46.7151 62.9054 46.7035 63.3741L46.5078 71.245C46.4958 71.7253 46.916 72.1158 47.4297 72.1084C47.4329 72.1083 47.4361 72.1083 47.4394 72.1082C52.0731 72.0465 55.724 75.5943 55.4771 79.9212C55.2506 83.89 51.6874 86.9837 47.4086 86.8734C47.2954 86.8705 47.1828 86.8654 47.0709 86.8581C46.5537 86.8243 46.1111 87.1967 46.0991 87.6813L45.9036 95.5429C45.8919 96.0117 46.2888 96.4022 46.7902 96.4151L67.7118 96.9546L86.4799 97.4386L107.402 97.9781C107.903 97.991 108.319 97.6215 108.33 97.1528L108.526 89.2911C108.538 88.8066 108.114 88.4119 107.596 88.4189C107.484 88.4204 107.371 88.4197 107.258 88.4168C102.979 88.3065 99.5745 85.033 99.5455 81.0576C99.5139 76.7236 103.337 73.3684 107.961 73.669C107.964 73.6692 107.968 73.6694 107.971 73.6696C108.484 73.7035 108.923 73.3351 108.935 72.8549L109.13 64.984C109.142 64.5152 108.745 64.1247 108.244 64.1118Z" fill="#CECECE"/>
<path d="M107.887 96.0203L107.847 96.8722C107.835 97.3408 107.419 97.7105 106.918 97.6974L85.9962 97.1579L67.228 96.6739L46.3065 96.1344C45.805 96.1216 45.4082 95.7312 45.4197 95.2623L45.0635 94.3428L107.887 96.0203Z" fill="#CECECE"/>
<path d="M107.427 98.8161C107.412 98.8161 107.396 98.8159 107.38 98.8155L46.768 97.2514C45.8034 97.2265 45.0376 96.4384 45.0611 95.4946L45.2628 87.3887C45.2744 86.9234 45.4727 86.4931 45.8213 86.1771C46.1743 85.8571 46.6529 85.6919 47.1346 85.7239C47.2346 85.7306 47.3366 85.7353 47.4379 85.7379C47.5037 85.7396 47.5694 85.7405 47.6348 85.7405C51.3825 85.7405 54.4454 82.9698 54.6483 79.3544C54.7536 77.4783 54.0919 75.7001 52.7852 74.3474C51.4121 72.9259 49.5254 72.1591 47.4708 72.1893L47.4631 72.1895C46.9824 72.1964 46.5142 72.0088 46.1793 71.673C45.8487 71.3417 45.673 70.9044 45.6846 70.4417L45.8865 62.3262C45.8978 61.8735 46.0872 61.4511 46.4199 61.1369C46.76 60.8157 47.2079 60.6456 47.6808 60.6577L108.293 62.2218C109.257 62.2467 110.023 63.0348 110 63.9785L109.798 72.094C109.786 72.5572 109.589 72.9853 109.242 73.2996C108.89 73.6181 108.413 73.7822 107.933 73.75L107.925 73.7494C105.875 73.6137 103.953 74.2815 102.511 75.6299C101.139 76.913 100.39 78.6543 100.402 80.533C100.425 84.2186 103.45 87.1834 107.288 87.2824C107.388 87.285 107.491 87.2856 107.592 87.2841C108.074 87.2779 108.543 87.4663 108.879 87.8036C109.211 88.1367 109.388 88.5761 109.376 89.041L109.174 97.147C109.163 97.5997 108.974 98.0221 108.641 98.3363C108.312 98.6467 107.883 98.8161 107.427 98.8161ZM47.0141 87.3955C46.9841 87.3955 46.9662 87.4074 46.9579 87.4149C46.9488 87.4231 46.9487 87.4275 46.9487 87.4301L46.7469 95.536C46.7467 95.5476 46.7684 95.5753 46.8118 95.5764L107.424 97.1406C107.451 97.1411 107.469 97.1308 107.479 97.1219C107.488 97.1132 107.488 97.1081 107.488 97.1056L107.69 88.9997C107.69 88.9972 107.69 88.9921 107.681 88.9826C107.672 88.9737 107.651 88.9586 107.616 88.9594C107.493 88.9613 107.367 88.9606 107.244 88.9574C104.962 88.8985 102.824 87.9971 101.224 86.4194C99.6203 84.8385 98.7297 82.7517 98.7157 80.5435C98.7082 79.3561 98.9433 78.2112 99.4144 77.1406C99.8686 76.1083 100.522 75.1896 101.355 74.41C102.221 73.6001 103.233 72.9846 104.363 72.5805C105.532 72.1628 106.768 71.9936 108.037 72.0776C108.037 72.0776 108.037 72.0776 108.037 72.0776L108.047 72.0783C108.09 72.0815 108.11 72.0582 108.112 72.0539L108.314 63.9372C108.314 63.9256 108.292 63.898 108.249 63.8968L47.637 62.3326C47.6083 62.3321 47.5912 62.3424 47.5818 62.3513C47.5726 62.36 47.5725 62.3651 47.5724 62.3676L47.3705 70.4831C47.3717 70.4887 47.3901 70.5145 47.4355 70.5141L47.4442 70.514C48.7171 70.4951 49.9433 70.7282 51.0893 71.2056C52.1978 71.6673 53.1778 72.334 54.0019 73.1872C54.7953 74.0085 55.4015 74.9594 55.8037 76.0135C56.2209 77.1068 56.3986 78.2622 56.3321 79.4477C56.2084 81.6528 55.2148 83.6914 53.5344 85.1881C51.9158 86.6296 49.8277 87.4159 47.632 87.416C47.5527 87.416 47.4736 87.415 47.3941 87.4129C47.27 87.4097 47.1448 87.404 47.022 87.3958C47.0193 87.3956 47.0167 87.3955 47.0141 87.3955Z" fill="#231F20"/>
<path d="M107.273 79.8708L85.5299 85.9638L66.025 91.4297L44.2822 97.5227C43.7611 97.6688 42.2501 97.6275 42.1033 97.1368L41.9631 96.3409L40.6097 88.669C40.4579 88.1616 40.7876 87.634 41.3324 87.5045C41.4501 87.4765 41.5679 87.4461 41.6854 87.4132C46.1322 86.1668 48.7554 81.8197 47.6438 77.6241C46.4318 73.0502 41.218 69.4504 36.4639 70.9882C36.4606 70.9893 35.8731 71.1521 35.87 71.1533C35.644 71.2267 35.5642 71.3864 35.5347 71.5054C35.4984 71.6523 35.5389 71.7369 35.4768 71.5202C35.472 71.5029 35.4664 71.4839 35.4599 71.4627L32.9941 63.2232C32.8471 62.7326 33.1504 62.2163 33.6715 62.0702L55.4143 55.9771L74.9192 50.5113L96.662 44.4182C96.6646 44.4174 96.6671 44.4168 96.6696 44.4163C96.7554 44.5087 96.8208 44.6193 96.8582 44.7444L99.2459 52.7135C99.3918 53.1999 99.0556 53.7107 98.5104 53.8408C98.507 53.8417 98.5036 53.8425 98.5003 53.8434C93.584 55.0238 90.707 59.6195 92.1669 63.9633C92.7543 65.7111 93.9742 67.1149 95.538 68.0337C97.6486 70.001 100.807 70.845 103.884 69.9829C104.002 69.9499 104.118 69.9148 104.233 69.8776C104.281 69.8623 104.33 69.8502 104.378 69.8419C104.865 69.7573 105.349 70.0267 105.487 70.4881L107.95 78.718C108.097 79.2086 107.794 79.7247 107.273 79.8708Z" fill="#1A1A1A"/>
<path d="M105.92 78.4422L83.9492 84.6064L64.2402 90.1362L42.2697 96.3005C42.1663 96.3296 42.0623 96.3427 41.9611 96.341C41.5457 96.336 41.1732 96.09 41.0591 95.7088L38.6739 87.7486C38.5269 87.258 38.8654 86.7422 39.4154 86.6104C39.5343 86.5816 39.6532 86.5509 39.7721 86.5174C44.2653 85.2568 46.9582 81.0068 45.8874 76.9473C44.7676 72.7026 40.149 70.3273 35.5327 71.5055C35.5133 71.5102 35.4939 71.5152 35.4748 71.5203C35.2972 71.5666 35.1198 71.6186 34.9424 71.6755C34.9391 71.6764 34.9357 71.6775 34.9323 71.6786C34.3997 71.8506 33.8333 71.5931 33.6877 71.107L31.3 63.1376C31.1578 62.6628 31.4693 62.1585 31.9957 62.0108L53.9662 55.8465L73.6752 50.3167L95.6457 44.1524C96.033 44.0438 96.429 44.1586 96.6676 44.4163C96.7534 44.5088 96.8188 44.6193 96.8562 44.7444L99.2439 52.7135C99.3898 53.2 99.0536 53.7108 98.5084 53.8409C98.505 53.8417 98.5016 53.8426 98.4983 53.8434C93.582 55.0238 90.705 59.6195 92.1649 63.9633C92.7523 65.7112 93.9722 67.115 95.536 68.0338C97.5364 69.2094 100.1 69.5912 102.622 68.8835C102.741 68.85 102.858 68.8148 102.975 68.7771C103.512 68.604 104.083 68.8648 104.23 69.3555L104.376 69.8419L106.615 77.3154C106.758 77.7901 106.446 78.2944 105.92 78.4422Z" fill="#1A1A1A"/>
<path d="M42.6096 98.9966C41.812 98.9966 41.0702 98.4767 40.8321 97.6822L38.2038 88.916C38.061 88.4398 38.1219 87.9211 38.371 87.493C38.6206 87.0637 39.0438 86.7514 39.532 86.6362C39.6392 86.6109 39.7477 86.5829 39.8547 86.5528C43.9174 85.4122 46.2488 81.3341 45.1622 77.2687C44.5915 75.1331 43.2141 73.3841 41.2839 72.3441C39.3642 71.3098 37.1541 71.1164 35.0606 71.7996L35.0501 71.8031C34.5747 71.9589 34.0665 71.9174 33.6205 71.686C33.1755 71.455 32.8517 71.0653 32.7087 70.5886L30.0774 61.8121C29.9364 61.3421 29.9892 60.8477 30.226 60.42C30.4622 59.9935 30.8527 59.6855 31.3255 59.5527L94.9721 41.6831C95.9387 41.4116 96.9591 41.9705 97.2465 42.9289L99.8778 51.7054C100.02 52.1792 99.9592 52.6953 99.7111 53.1211C99.4623 53.5485 99.0406 53.8591 98.5543 53.9734L98.545 53.9756C96.4023 54.4818 94.6464 55.786 93.6008 57.6479C92.55 59.519 92.3554 61.7033 93.053 63.7983C94.1525 67.1007 97.2222 69.2056 100.548 69.206C101.259 69.206 101.982 69.1096 102.701 68.9079C102.808 68.8779 102.915 68.8454 103.02 68.8112C103.498 68.6548 104.009 68.6968 104.457 68.9295C104.904 69.1619 105.229 69.5537 105.373 70.0328L108.001 78.799C108.142 79.2691 108.089 79.7634 107.852 80.1911C107.616 80.6176 107.226 80.9256 106.753 81.0584L43.1064 98.928C42.9411 98.9745 42.7741 98.9966 42.6096 98.9966ZM37.5423 69.7246C37.8477 69.7246 38.1534 69.7393 38.4595 69.7686C39.7361 69.8909 40.9569 70.2619 42.0878 70.8712C43.2236 71.4832 44.2071 72.3023 45.0111 73.3057C45.8443 74.3456 46.4435 75.5342 46.7922 76.8387C47.4273 79.2153 47.1094 81.6952 45.8967 83.8214C44.6811 85.953 42.6982 87.4957 40.3131 88.1653C40.1835 88.2017 40.0518 88.2357 39.9218 88.2664C39.8711 88.2783 39.8445 88.3083 39.8311 88.3313C39.8123 88.3637 39.8085 88.3995 39.82 88.4377L42.4483 97.2039C42.4734 97.2878 42.5648 97.339 42.6477 97.3157L106.294 79.446C106.33 79.4359 106.357 79.4149 106.375 79.3835C106.387 79.3611 106.399 79.3246 106.385 79.2774L103.757 70.5112C103.741 70.4578 103.703 70.4291 103.675 70.4143C103.646 70.3994 103.6 70.3852 103.546 70.4029C103.419 70.4445 103.289 70.4839 103.16 70.5203C100.779 71.1887 98.2565 70.9139 96.0573 69.7465C93.8638 68.5821 92.2282 66.6565 91.4518 64.3245C91.0246 63.0413 90.8732 61.7254 91.0019 60.4136C91.1264 59.1457 91.5052 57.9406 92.1281 56.8315C92.7485 55.7267 93.5773 54.7775 94.5914 54.0103C95.641 53.2163 96.8399 52.6562 98.1548 52.3455C98.1553 52.3454 98.1557 52.3453 98.1562 52.3452L98.1665 52.3428C98.2139 52.3317 98.2388 52.3037 98.2514 52.2822C98.2687 52.2523 98.2722 52.2192 98.2615 52.1838L95.6301 43.4073C95.605 43.3234 95.5138 43.2722 95.4307 43.2955L31.7842 61.1651C31.7481 61.1752 31.721 61.1963 31.7036 61.2276C31.6913 61.25 31.6795 61.2865 31.6936 61.3337L34.325 70.1102C34.3399 70.1602 34.3747 70.187 34.4012 70.2008C34.4285 70.215 34.4718 70.2283 34.5233 70.2114L34.5347 70.2077C35.5193 69.8863 36.5276 69.7246 37.5423 69.7246Z" fill="#231F20"/>
<path d="M51.7032 56.8456C51.3399 56.8456 51.0045 56.6105 50.8955 56.2468L50.5343 55.0425C50.4014 54.5991 50.6554 54.1325 51.1017 54.0004C51.5481 53.8683 52.0176 54.1207 52.1506 54.5641L52.5117 55.7685C52.6446 56.2119 52.3906 56.6785 51.9443 56.8106C51.864 56.8343 51.7829 56.8456 51.7032 56.8456Z" fill="#CECECE"/>
<path d="M60.7886 87.1494C60.4252 87.1494 60.0899 86.9142 59.9808 86.5505L59.2237 84.0252C59.0908 83.5818 59.3448 83.1152 59.7911 82.9832C60.2373 82.851 60.707 83.1035 60.8399 83.5469L61.5971 86.0722C61.73 86.5157 61.476 86.9822 61.0297 87.1143C60.9494 87.138 60.8683 87.1494 60.7886 87.1494ZM58.5172 79.5734C58.1538 79.5734 57.8184 79.3383 57.7094 78.9746L56.9522 76.4493C56.8193 76.0059 57.0733 75.5393 57.5196 75.4072C57.9659 75.275 58.4355 75.5275 58.5685 75.971L59.3256 78.4963C59.4586 78.9397 59.2046 79.4063 58.7582 79.5383C58.678 79.5621 58.5968 79.5734 58.5172 79.5734ZM56.2457 71.9975C55.8824 71.9975 55.547 71.7624 55.4379 71.3987L54.6808 68.8734C54.5479 68.43 54.8019 67.9634 55.2482 67.8313C55.6946 67.6993 56.1641 67.9516 56.297 68.3951L57.0542 70.9204C57.1871 71.3638 56.9331 71.8303 56.4868 71.9624C56.4065 71.9862 56.3254 71.9975 56.2457 71.9975ZM53.9743 64.4216C53.6109 64.4216 53.2755 64.1865 53.1665 63.8228L52.4093 61.2975C52.2764 60.8541 52.5304 60.3875 52.9767 60.2554C53.423 60.1233 53.8926 60.3757 54.0256 60.8192L54.7827 63.3445C54.9156 63.7879 54.6616 64.2544 54.2153 64.3865C54.135 64.4103 54.054 64.4216 53.9743 64.4216Z" fill="#CECECE"/>
<path d="M62.6642 93.4042C62.3008 93.4042 61.9654 93.1691 61.8564 92.8054L61.4953 91.6011C61.3623 91.1576 61.6164 90.6911 62.0627 90.559C62.5091 90.4269 62.9786 90.6793 63.1115 91.1228L63.4726 92.3271C63.6055 92.7706 63.3515 93.2371 62.9052 93.3692C62.8249 93.3929 62.7438 93.4042 62.6642 93.4042Z" fill="#CECECE"/>
<path d="M71.1618 82.4232C70.8703 82.499 70.5517 82.4783 70.2571 82.3426C69.584 82.0324 69.2914 81.2388 69.6035 80.57L81.3183 55.4736C81.6304 54.8049 82.4292 54.5141 83.1024 54.8243C83.7755 55.1345 84.0681 55.9281 83.7559 56.5969L72.0412 81.6932C71.8657 82.0693 71.5362 82.3259 71.1618 82.4232Z" fill="#CECECE"/>
<path d="M69.0694 68.2146C66.6133 68.8531 64.096 67.4016 63.4579 64.9789C62.8199 62.5563 64.299 60.0658 66.7551 59.4273C69.2112 58.7888 71.7285 60.2403 72.3665 62.6629C73.0045 65.0856 71.5254 67.5761 69.0694 68.2146ZM67.4353 62.0101C66.4126 62.2759 65.7945 63.3046 66.0575 64.3031C66.3205 65.3016 67.3664 65.8977 68.3891 65.6318C69.4118 65.366 70.0299 64.3373 69.7669 63.3388C69.504 62.3402 68.458 61.7442 67.4353 62.0101Z" fill="#CECECE"/>
<path d="M86.6133 77.421C84.1572 78.0595 81.6399 76.608 81.0019 74.1854C80.3638 71.7627 81.8429 69.2722 84.299 68.6337C86.7551 67.9952 89.2724 69.4467 89.9104 71.8694C90.5485 74.292 89.0694 76.7825 86.6133 77.421ZM84.9793 71.2165C83.9566 71.4823 83.3385 72.511 83.6014 73.5095C83.8644 74.508 84.9104 75.1041 85.9331 74.8382C86.9557 74.5723 87.5738 73.5437 87.3109 72.5452C87.0479 71.5466 86.0019 70.9506 84.9793 71.2165Z" fill="#CECECE"/>
</svg>
