<?xml version="1.0" encoding="UTF-8"?>
<svg id="Layer_2" data-name="Layer 2" xmlns="http://www.w3.org/2000/svg" viewBox="0 0 93.09 95.33">
  <defs>
    <style>
      .cls-1 {
        fill: #3e843f;
      }

      .cls-2 {
        fill: #074324;
      }
    </style>
  </defs>
  <g id="Layer_1-2" data-name="Layer 1">
    <path class="cls-2" d="m14.73,80.33v.41h-2.75c-1,0-1.65-.21-2.06-.58-.45-.41-.62-1.03-.62-1.96,0-.17-.03-4.46-.03-4.46,0,0,0-.27-.21-.55-.28-.38-.82-.58-1.51-.58h-2.5v7.69h1.58v.41H0v-.41h1.61v-23.31H0v-.41h7.52c1.92,0,3.33.45,4.19,1.3.69.72,1.03,1.68,1,2.99v7.45c.03.96-.14,1.75-.51,2.37-.51.86-1.41,1.44-2.64,1.72,1.24.31,2.13.86,2.64,1.75.38.62.55,1.37.51,2.33v3.3c.03.27.17.55.55.55h1.48Zm-7.21-8.14h.03c1.72,0,1.72-.79,1.72-.79v-13.28s0-.27-.21-.55c-.28-.38-.82-.58-1.54-.58h-2.47v15.21h2.47Z"/>
    <path class="cls-2" d="m26.47,80.3v.41h-3.47c-.76,0-.82-.34-.89-.58-.03-.14-.03-.21-.14-.21h-.04c-.07.1-.62.79-2.16.79h-.03c-1.85,0-3.26-.41-4.08-1.27-.89-.93-1-2.16-1-3.02v-2.71c0-.96.41-4.05,5.8-4.05h.96v-4.74c0-.51,0-1.06-1.65-1.06-2.09,0-3.5.55-4.19,1.61.24-.14.51-.21.79-.21.86,0,1.58.65,1.68,1.48.07.48-.07.96-.41,1.34-.31.34-.75.55-1.24.55h-.03c-.45,0-.86-.17-1.17-.48-.34-.34-.51-.82-.51-1.27.03-.65.24-1.61,1.2-2.37.86-.72,2.16-1.06,3.88-1.06,1.82,0,3.16.45,4.02,1.3.72.72,1.1,1.75,1.06,2.99v11.81c0,.48.17.76.45.76h1.17Zm-8.38-1.03c0,.52,0,1.03,1.68,1.03.69,0,1.2-.17,1.44-.55.21-.34.21-.72.21-1v-8.68h-.55c-1.44,0-2.3.14-2.64.48-.17.21-.17.41-.14.58v8.13Z"/>
    <polygon class="cls-2" points="39.17 63.44 39.17 63.86 37.48 63.86 32.71 80.71 32.3 80.71 27.49 63.86 25.78 63.86 25.78 63.44 27.36 63.44 27.43 63.44 30.93 63.44 32.64 63.44 32.64 63.86 31.06 63.86 34.05 74.43 37.07 63.86 35.39 63.86 35.39 63.44 37.17 63.44 37.21 63.44 37.62 63.44 39.17 63.44"/>
    <path class="cls-2" d="m50.63,80.3v.41h-3.47c-.75,0-.82-.34-.89-.58-.03-.14-.03-.21-.14-.21h-.04c-.07.1-.62.79-2.16.79h-.03c-1.85,0-3.26-.41-4.08-1.27-.89-.93-1-2.16-1-3.02v-2.71c0-.96.41-4.05,5.8-4.05h.96v-4.74c0-.51,0-1.06-1.65-1.06-2.09,0-3.5.55-4.19,1.61.24-.14.51-.21.79-.21.86,0,1.58.65,1.68,1.48.07.48-.07.96-.41,1.34-.31.34-.75.55-1.24.55h-.03c-.45,0-.86-.17-1.17-.48-.34-.34-.51-.82-.51-1.27.03-.65.24-1.61,1.2-2.37.86-.72,2.16-1.06,3.88-1.06,1.82,0,3.16.45,4.02,1.3.72.72,1.1,1.75,1.06,2.99v11.81c0,.48.17.76.45.76h1.17Zm-8.37-1.03c0,.52,0,1.03,1.68,1.03.69,0,1.2-.17,1.44-.55.21-.34.21-.72.21-1v-8.68h-.55c-1.44,0-2.3.14-2.64.48-.17.21-.17.41-.14.58v8.13Z"/>
    <path class="cls-2" d="m60.86,76.45c0,.82-.1,2.09-1.03,3.02-.82.82-2.2,1.27-4.08,1.27s-3.36-.48-4.19-1.37c-.58-.62-.89-1.48-.93-2.61v-.03h.41v.03c0,2.37,1.58,3.54,4.7,3.57,1.65-.03,1.65-.55,1.68-1.06v-2.78c0-1.41-1.3-1.99-2.85-2.71-1.82-.82-3.91-1.78-3.91-4.46v-1.58c0-.86.1-2.09,1-3.02.86-.82,2.23-1.27,4.12-1.27,1.68,0,2.99.38,3.88,1.1.93.75,1.13,1.68,1.17,2.33,0,.48-.17.93-.48,1.27-.34.31-.75.51-1.2.51-.48-.03-.96-.24-1.27-.58-.31-.38-.45-.82-.41-1.34.1-.82.82-1.44,1.68-1.44.27,0,.55.03.79.17-.69-1.06-2.09-1.61-4.15-1.61-1.68,0-1.68.55-1.68,1.07v3.74c0,1.06,1.24,1.68,2.68,2.37.96.45,1.96.93,2.75,1.61.89.79,1.34,1.72,1.34,2.81v.99Z"/>
    <path class="cls-2" d="m68.34,80.3v.41h-6.62v-.41h1.61v-16.44h-1.61v-.41h5.05v16.85h1.58Zm-5.05-22c0-.96.79-1.72,1.75-1.72s1.75.75,1.75,1.72-.79,1.75-1.75,1.75-1.75-.79-1.75-1.75"/>
    <path class="cls-2" d="m81.28,63.44v.41h-1.55v19.39c0,.86-.1,2.09-.99,3.02-.86.86-2.23,1.27-4.08,1.27h-.03c-1.72,0-3.02-.38-3.91-1.1-.72-.62-1.13-1.48-1.13-2.4s.75-1.68,1.68-1.68,1.68.76,1.68,1.68-.76,1.68-1.68,1.68c-.27,0-.55-.07-.79-.2.69,1.06,2.09,1.61,4.15,1.61,1.68,0,1.68-.51,1.68-1.03v-5.73c-.51.24-1.1.34-1.65.34-1.89,0-3.26-.41-4.12-1.27-.89-.93-1-2.16-1-3.02v-12.56h-1.54v-.41h4.98v15.82c0,.51,0,1.03,1.68,1.03.72,0,1.2-.17,1.44-.55.21-.34.21-.72.21-1v-14.9h-1.68v-.41h6.66Z"/>
    <path class="cls-2" d="m93.09,80.3v.41h-3.47c-.76,0-.82-.34-.89-.58-.03-.14-.03-.21-.14-.21h-.03c-.07.1-.62.79-2.16.79h-.03c-1.85,0-3.26-.41-4.09-1.27-.89-.93-1-2.16-1-3.02v-2.71c0-.96.41-4.05,5.8-4.05h.96v-4.74c0-.51,0-1.06-1.65-1.06-2.09,0-3.5.55-4.19,1.61.24-.14.51-.21.79-.21.86,0,1.58.65,1.68,1.48.07.48-.07.96-.41,1.34-.31.34-.75.55-1.24.55h-.03c-.45,0-.86-.17-1.17-.48-.34-.34-.51-.82-.51-1.27.03-.65.24-1.61,1.2-2.37.86-.72,2.16-1.06,3.88-1.06,1.82,0,3.16.45,4.02,1.3.72.72,1.1,1.75,1.06,2.99v11.81c0,.48.17.76.45.76h1.17Zm-8.38-1.03c0,.52,0,1.03,1.68,1.03.69,0,1.2-.17,1.44-.55.21-.34.21-.72.21-1v-8.68h-.55c-1.44,0-2.3.14-2.64.48-.17.21-.17.41-.14.58v8.13Z"/>
    <path class="cls-1" d="m34.31,88.5s.14-.02.28.05c.1.05.14.09.11.12-.44.37-1.08.91-1.92,1.6-1.25,1.02-2.32,1.88-3.23,2.59-.9.71-1.69,1.27-2.34,1.66-.29.17-.56.32-.81.43-.25.11-.52.21-.81.29-.29.08-.58.11-.87.1-.3-.01-.59-.07-.89-.17-.61-.21-1.13-.56-1.56-1.04-.43-.48-.7-1.04-.82-1.67-.23-1.19.02-2.62.73-4.29.65-1.52,1.61-3.07,2.87-4.67,1.2-1.51,2.44-2.78,3.73-3.79.28-.22.54-.42.77-.58.23-.16.49-.33.79-.51.3-.18.6-.32.9-.43.3-.11.6-.18.9-.22.64-.08,1.21.04,1.7.35.16.1.25.22.28.36.03.17,0,.4-.11.7-.11.35-.32.83-.63,1.42-.35.68-.84,1.51-1.46,2.49-.25.39-.52.8-.82,1.22-.3.42-.64.89-1.02,1.4-.38.51-.67.91-.87,1.19-.02.01-.04.02-.08,0-.03,0-.07-.02-.1-.04-.03-.02-.05-.03-.04-.04.33-.51.71-1.18,1.16-2.01.16-.3.45-.81.88-1.55.43-.74.78-1.38,1.06-1.92.28-.54.53-1.08.74-1.62.2-.49.31-.85.35-1.06.04-.2.03-.37,0-.51-.06,0-.13,0-.21,0-.04,0-.13.01-.26.04-.2.04-.43.12-.69.22-.58.24-1.15.56-1.69.96-.55.4-1.12.87-1.7,1.42-1.26,1.17-2.4,2.48-3.43,3.95-1.1,1.56-1.89,3.04-2.36,4.44-.53,1.57-.6,2.88-.22,3.91.1.26.24.51.41.75.17.24.36.44.56.6.02.01.04.03.07.06.03.02.05.04.07.05,0,0,.03.02.08.05l.14.07.04.02h-.01s0,0,0,0h.06s0,.02,0,.02c0,0,0,0,0,0,.08.01.16.02.23.01.28,0,.56-.05.85-.13.29-.08.61-.22.95-.4.35-.19.6-.33.78-.44.17-.11.44-.29.82-.54.06-.04.1-.06.13-.08.66-.44,1.35-.93,2.09-1.48.73-.54,1.52-1.14,2.37-1.79.85-.65,1.53-1.17,2.04-1.54m-1.13-10.18v-.03s-.01.04-.01.04h.01Zm.06.02h0s.01,0,.01,0h-.02Z"/>
    <path class="cls-1" d="m41.92,78.67c.1,0,.21.02.34.06.13.04.24.09.33.15.09.06.12.12.11.17-.29.84-.73,2.01-1.3,3.53-.02.04-.08.21-.18.49-.1.28-.17.45-.19.52-.02.06-.08.22-.18.48-.1.26-.16.43-.19.52-.03.09-.09.25-.18.48-.08.23-.14.4-.18.52s-.1.28-.17.48c-.07.21-.13.38-.18.53-.05.15-.1.31-.16.49-.06.18-.11.35-.16.52-.03.08-.08.26-.16.52-.08.26-.14.45-.18.58-.04.12-.08.29-.15.51-.06.21-.11.41-.15.59-.04.18-.08.35-.12.53-.08.39-.12.74-.13,1.05-.01.31.02.64.1.98.08.34.22.66.41.96.01.02-.01.02-.08.01-.14-.02-.23-.04-.27-.08-.23-.2-.41-.44-.56-.71-.15-.27-.25-.56-.31-.86s-.08-.61-.08-.91.02-.6.07-.91c.14-.81.33-1.63.58-2.46.25-.82.56-1.74.92-2.75.19-.52.48-1.29.87-2.33-.36.78-.65,1.42-.89,1.91-.22.46-.39.82-.52,1.07-.13.25-.29.57-.5.96-.21.38-.4.73-.59,1.03-.15.24-.27.43-.37.57-.1.14-.22.31-.39.49-.16.19-.32.34-.49.47-.01.01-.04.03-.07.05-.08.36-.22.72-.41,1.08-.25.47-.51.74-.77.82-.2.06-.42.05-.66-.02-.24-.07-.43-.19-.57-.35-.22-.26-.27-.65-.15-1.15.19-.78.59-1.5,1.2-2.17.17-.18.33-.33.49-.42.16-.1.33-.13.51-.1.07.01.13.03.19.05.06.02.13.05.19.1.07.05.1.1.09.16,0,.07-.09.18-.24.33.14.25.21.55.21.91.42-.48.84-1.04,1.25-1.69.33-.53.65-1.07.96-1.62.31-.55.64-1.19.99-1.93.36-.73.61-1.27.77-1.61.16-.34.45-.97.87-1.89.03-.07.07-.17.12-.3.05-.13.09-.24.11-.3.01-.03.04-.05.08-.06h0s0-.02,0-.02c.01-.02.04-.01.08,0m-7.18,11.81s0,0,0,0,0,0,0,0h.01Zm.88-.68c.13-.19.24-.41.34-.67-.3.05-.58.01-.84-.11,0,.01-.02.03-.03.07-.01.03-.02.05-.03.07-.13.39-.21.69-.22.88-.01.15,0,.29.05.4.04-.01.07-.02.07-.02.22-.1.44-.3.65-.62m-.19-1.48c-.07.13-.15.31-.25.54.05.04.1.07.14.1.01,0,.03.01.06.01.08,0,.14,0,.18-.02.17-.04.35-.13.54-.28.05-.22.08-.41.1-.59.02-.32,0-.59-.06-.81-.04.05-.11.12-.19.22-.2.26-.38.53-.53.82"/>
    <path class="cls-1" d="m42.77,83.81c-.1.26-.32.79-.66,1.58-.34.8-.61,1.47-.81,2.01-.2.55-.38,1.09-.53,1.63-.06.22-.1.39-.13.53-.03.13-.06.3-.08.5s-.03.38-.02.54c.01.2.06.36.14.49.02.02.06.06.11.12h0s0,.01,0,.01h.01s.02,0,.03,0c.01,0,.03.01.04.01.02,0,.03,0,.04.01.09-.02.17-.04.23-.06.21-.09.47-.27.77-.53.23-.2.59-.55,1.07-1.03.48-.49.87-.85,1.15-1.08,0,0,.03,0,.06,0,.03,0,.06.02.09.03s.03.02.03.03c-.04.06-.07.11-.11.17-.04.06-.08.11-.13.18-.05.06-.09.11-.12.15s-.08.1-.14.17c-.06.07-.1.12-.13.15-.03.03-.07.09-.14.17-.07.08-.11.13-.13.15-.02.02-.06.07-.14.16-.08.09-.12.14-.13.15-.44.5-.78.85-1,1.03-.31.26-.57.41-.8.45-.16.03-.33.01-.51-.03s-.34-.13-.48-.23c-.26-.16-.43-.38-.5-.65-.03-.12-.05-.25-.06-.38,0-.13,0-.28.01-.42.02-.15.04-.28.06-.38.02-.11.05-.24.08-.4.17-.75.41-1.56.72-2.43.2-.57.44-1.2.72-1.9.28-.7.49-1.23.63-1.58.14-.35.42-1.01.83-1.98.41-.97.64-1.52.7-1.67.01-.04.05-.06.11-.06.06,0,.13,0,.21.02.08.02.15.05.23.08.07.03.14.07.18.11.04.04.06.07.05.1-.34.91-.88,2.26-1.6,4.07"/>
    <path class="cls-1" d="m48.14,88.52s.09,0,.18.04c.04.03.05.05.04.06-.25.19-.62.45-1.11.79-.49.34-.77.53-.83.58-.41.29-.76.51-1.05.65-.4.21-.8.23-1.2.06-.33-.14-.56-.32-.66-.53-.12-.24-.12-.57.01-.97.12-.36.3-.7.54-1.03.24-.33.52-.6.83-.8.19-.12.39-.17.6-.16.21.01.41.09.6.22.1.07.16.16.17.26.03.02.04.04.05.06.04.08.01.21-.07.38-.05.11-.12.22-.19.32-.19.28-.36.46-.52.54-.2.11-.43.12-.7.06-.03,0-.08-.02-.14-.04-.22.35-.36.64-.42.89-.04.14-.04.26-.02.37.02.1.06.19.12.25.02.02.04.03.04.03h0s.01,0,.01,0h0c.07,0,.14-.03.21-.04.18-.06.4-.15.66-.28.23-.12.47-.26.74-.41.27-.15.49-.29.68-.4.18-.11.43-.26.74-.45.31-.19.54-.33.69-.42m-3.74,2h0,0s0,0,0,0Zm.94-2.39c-.19.2-.37.44-.55.71.13-.01.25-.1.36-.25.01-.02.06-.1.14-.26,0,0,.04-.1.1-.27,0,0-.02.02-.03.03-.01.01-.02.02-.03.03m.09-.73s0,0,0,0,0,0-.02,0c0,0,0,0,0,0s0,0,.01,0"/>
    <path class="cls-1" d="m52.14,88.52s.09,0,.18.04c.04.03.05.05.04.06-.25.19-.62.45-1.11.79-.49.34-.77.53-.83.58-.41.29-.76.51-1.05.65-.4.21-.8.23-1.19.06-.34-.15-.56-.32-.67-.53-.12-.24-.12-.57.01-.97.12-.36.3-.7.54-1.03.24-.33.52-.6.83-.8.19-.12.39-.17.61-.16.21.01.41.09.6.22.09.06.14.13.16.21.02.08,0,.16-.04.26-.04.09-.09.17-.13.24-.04.07-.11.15-.19.25-.09.1-.14.16-.16.18-.01.01-.04.01-.07.01-.03,0-.06-.01-.1-.03-.03-.01-.05-.03-.04-.05.03-.14.04-.33,0-.57-.09.09-.16.16-.21.21-.24.26-.45.54-.64.85-.23.37-.37.67-.43.9-.04.14-.04.26-.01.37.02.1.06.19.12.25.02.02.04.03.04.03h0s0,0,0,0h0c.07,0,.14-.03.21-.04.18-.06.4-.15.66-.28.23-.12.47-.26.74-.41.27-.15.49-.29.68-.4.18-.11.43-.26.74-.45.31-.19.54-.33.69-.42m-3.74,2h0,0s0,0,0,0Zm1.02-3.12s0,0,0,0,0,0-.02,0c0,0,0,0,0,0,0,0,0,0,.01,0"/>
    <path class="cls-1" d="m56.86,81.87c.91.22,1.48.62,1.69,1.17,0,.02,0,.03-.04.03-.09,0-.17-.03-.25-.08-.01,0-.02-.02-.03-.03-.12-.19-.27-.35-.43-.48-.17-.13-.35-.22-.55-.28-.2-.06-.4-.11-.59-.13-.19-.03-.41-.04-.65-.05-.18,0-.45-.01-.81-.03-.08.2-.2.5-.36.91-.16.4-.28.7-.36.9-.1.25-.32.78-.66,1.58-.34.8-.61,1.47-.81,2.02-.2.54-.38,1.08-.52,1.62-.06.21-.1.39-.13.53-.03.14-.06.3-.09.5-.03.2-.03.38-.02.54.02.22.07.38.13.49,0,0,.05.05.12.12h0s0,.01,0,.01h0s.05.01.12.03c.08-.02.16-.04.23-.07.21-.09.47-.27.77-.53.22-.19.58-.54,1.07-1.03.49-.49.88-.85,1.16-1.08,0,0,.03,0,.06,0,.03,0,.06.02.08.03.03.01.03.02.03.03-.21.33-.6.81-1.16,1.45-.44.5-.78.85-1,1.03-.31.26-.57.41-.8.45-.33.05-.66-.03-.98-.26-.26-.16-.43-.38-.5-.65-.03-.12-.05-.25-.06-.38,0-.13,0-.27.01-.42.02-.15.04-.27.06-.38.02-.11.05-.24.08-.4.16-.73.41-1.54.73-2.42.42-1.18,1.03-2.73,1.83-4.65-.5-.02-1-.05-1.49-.09-.21-.02-.36-.03-.45-.04-.09-.01-.22-.03-.38-.07s-.31-.08-.43-.13c-.03-.01-.05-.02-.08-.04-.03-.01-.06-.03-.1-.05s-.06-.05-.08-.07c-.02-.03-.02-.05,0-.08.04-.06.16-.06.37,0-.02,0-.02,0,0,0,0,0,.01,0,.02,0,.05.01.09.02.12.02.07.01.18.02.32.03.18.02.44.04.8.07.17,0,.43.03.77.05.34.02.6.04.77.05.07-.17.21-.51.42-.99.2-.49.36-.87.47-1.13.01-.04.05-.06.12-.06.06,0,.13,0,.21.03.08.02.15.05.23.08.07.03.13.07.18.11.04.04.06.08.05.1-.23.61-.48,1.25-.75,1.93.66.05,1.17.11,1.53.2"/>
    <path class="cls-1" d="m59.88,88.56s.08,0,.14.03c.03.01.04.03.03.04-.12.11-.24.21-.37.31-.13.1-.3.22-.5.36-.2.14-.33.23-.4.28-.54.38-.83.6-.89.64-.4.29-.73.48-.97.57-.29.1-.61.06-.96-.12-.27-.13-.45-.32-.54-.56-.04-.1-.06-.21-.06-.33,0-.12,0-.22,0-.29,0-.07.02-.18.04-.34.02-.15.05-.31.1-.47.04-.16.1-.32.17-.49.07-.17.13-.31.19-.43.05-.11.13-.27.23-.47.1-.2.17-.35.21-.43.02-.03.06-.05.12-.06.06,0,.13,0,.21.02.08.02.15.05.23.08.07.03.13.07.18.1.05.04.06.08.05.11-.09.27-.24.67-.46,1.18-.22.51-.37.89-.46,1.15-.11.31-.13.58-.08.82.03.13.09.23.17.3,0,0,0,0,.01.01h0s.01,0,.02,0c0,0,.02,0,.03,0,.1-.02.21-.05.34-.11.36-.17.89-.48,1.59-.94.7-.46,1.24-.78,1.63-.95m-3.66,2.01h.03s0,0,0,0c0,0,0,0,0,0h-.04Zm.01,0h.01-.01Zm.85-4.23s-.09.02-.17,0c-.08-.03-.13-.06-.15-.1-.03-.05-.05-.1-.05-.14,0-.02,0-.04,0-.06,0-.03,0-.05,0-.06,0-.05.02-.13.04-.24.07-.27.11-.43.13-.48,0-.03.02-.07.03-.13.01-.06.02-.1.03-.13,0-.03.02-.07.04-.12.02-.05.03-.09.04-.12,0-.02,0-.04,0-.06,0-.02,0-.04,0-.05,0-.03.02-.08.05-.14.01-.03.03-.07.05-.12.02-.05.04-.09.05-.11.02-.04.08-.07.19-.07.08,0,.21.02.38.07.15.04.26.1.35.16.1.06.13.12.12.17-.01.03-.03.07-.05.12-.03.05-.04.09-.06.12-.03.06-.05.09-.06.11-.05.06-.07.09-.08.11-.05.1-.1.17-.12.22l-.15.21c-.03.06-.09.14-.15.24-.07.1-.12.17-.13.2-.03.05-.08.11-.15.2-.03.05-.05.08-.06.08-.02.02-.05.05-.11.08"/>
    <path class="cls-1" d="m67.8,87.08c.02.08,0,.2-.04.38-.07.25-.16.51-.27.78-.11.27-.24.56-.39.88-.15.32-.26.57-.33.75,0,.02-.02.05-.04.08-.2.48-.32.85-.36,1.11,0,0,0,.02,0,.03-.06.4,0,.65.15.76.05.04.07.07.06.1-.01.02-.05.04-.11.04-.14.01-.29-.04-.46-.15-.27-.17-.4-.47-.39-.88.01-.39.09-.78.22-1.18.13-.4.31-.85.54-1.33.27-.6.44-.96.49-1.09.04-.1.07-.18.08-.23-.12.11-.29.3-.49.55-.21.26-.32.4-.33.41-.22.25-.5.59-.83,1.01-.34.42-.65.81-.96,1.17s-.6.68-.88.97c0,.03-.05.04-.13.04-.08,0-.13,0-.14,0-.24-.04-.39-.11-.46-.2-.02-.03-.04-.07-.04-.12,0-.05,0-.1.01-.15.01-.06.03-.1.05-.15.02-.04.04-.09.07-.15.03-.06.04-.1.05-.12.12-.31.32-.75.59-1.31.27-.56.46-.97.56-1.23.21-.5.37-.92.46-1.26,0-.04.02-.1.04-.18h0c-.14.13-.35.33-.62.61-.27.28-.52.52-.76.72-.23.2-.47.37-.71.5-.15.08-.29.14-.43.18,0,.11-.02.22-.04.32-.08.4-.22.79-.44,1.18-.25.46-.51.74-.77.82-.2.06-.42.05-.66-.02-.24-.07-.43-.19-.57-.35-.22-.26-.26-.65-.15-1.15.19-.78.59-1.5,1.2-2.17.17-.18.33-.32.49-.42.16-.1.33-.13.51-.1.07.01.13.03.2.05.06.02.13.05.19.1.07.05.1.1.09.16-.01.07-.09.18-.24.33.15.27.21.6.21,1,.16-.08.32-.19.48-.31.15-.12.31-.27.45-.43.15-.17.27-.31.36-.43.1-.12.21-.28.35-.48.06-.08.14-.21.24-.39.1-.18.19-.31.25-.4.08-.1.18-.16.3-.16.07,0,.2.03.39.08.19.06.3.12.34.19.09.04.16.1.2.17.03.06.06.13.07.21.01.08,0,.16-.01.26-.02.1-.04.17-.05.22-.01.05-.03.12-.06.23-.04.15-.1.3-.16.47-.06.17-.12.31-.16.42-.04.11-.11.27-.21.47-.09.2-.15.33-.19.41-.04.07-.11.23-.23.46-.12.23-.18.37-.2.42-.3.61-.48.98-.54,1.11,0,.02-.02.04-.03.07-.01.03-.03.05-.03.06.19-.25.39-.51.6-.78.07-.09.31-.41.72-.97.44-.6.92-1.3,1.42-2.1.01-.02.03-.05.06-.1.03-.05.05-.08.07-.11.02-.03.04-.06.07-.1.03-.04.06-.07.08-.09.06-.06.14-.08.25-.07.1,0,.2.03.28.06.08.03.16.07.24.11.06.03.12.07.16.12.17.07.27.16.3.28m-7.74,3.39s0,0,0,0,0,0,0,0h.01Zm.88-.68c.25-.37.43-.8.53-1.3-.09,0-.15-.02-.2-.03-.17-.04-.34-.11-.49-.22,0,0,0,.02-.01.03,0,.01-.01.02-.01.03-.14.26-.26.54-.37.84-.13.39-.21.69-.22.88-.01.15,0,.29.05.4.04-.01.07-.01.07-.01.22-.1.44-.3.65-.62m.34-2.31c-.15.2-.3.42-.44.68.2.14.41.2.65.18.02-.12.03-.21.04-.27.02-.32,0-.59-.06-.81-.04.05-.1.12-.18.22m3.14-1.71s.07.06.1.07h0s-.04-.03-.09-.07m2.34.94s.06.03.1.05c-.05-.03-.09-.05-.12-.07-.01,0-.02-.02-.03-.02h0s.04.04.04.04Zm.18.09h-.01s0,0,0,0h0Z"/>
    <path class="cls-1" d="m71.56,88.55s.07,0,.13.04c.02.01.03.02.02.03-.47.26-1.29.67-2.48,1.24.06.25.09.45.09.61,0,.24-.05.47-.17.67-.12.2-.28.37-.48.49-.2.12-.41.22-.64.29-.23.07-.46.1-.68.11-.09,0-.21-.01-.35-.04-.14-.02-.29-.07-.45-.12-.16-.06-.26-.14-.32-.23-.06-.1-.05-.21.02-.35.08-.13.27-.29.56-.47.28-.18.64-.38,1.1-.61l.53-.26c-.02-.05-.06-.16-.13-.33s-.11-.3-.14-.39c-.09-.3-.14-.6-.15-.9-.02-.65.16-1.19.55-1.62.13-.15.27-.26.43-.35.16-.08.32-.12.51-.12.18,0,.36.06.52.18,0,0,0,0,0,0s0,0,0,0h0c.02-.08.03-.12.03-.13,0-.02.01-.03.04-.04.03,0,.06,0,.1,0,.04,0,.08.01.11.02.03,0,.05.01.07.01.21.06.33.12.35.19.03.08-.01.2-.12.35-.02.03-.05.06-.09.1-.04.04-.07.07-.08.09-.07.08-.13.15-.18.21-.11.12-.24.27-.37.46-.26.35-.32.62-.18.8.01.02,0,.02-.02.02-.05,0-.09-.01-.11-.03-.15-.11-.22-.25-.22-.43,0-.11.02-.22.06-.32.04-.11.1-.24.18-.39.08-.16.13-.25.15-.29.01-.02.05-.1.13-.24.01-.02.03-.06.05-.1.02-.05.03-.08.04-.1,0,0-.02,0-.05,0-.05.04-.14.12-.27.24-.11.11-.21.24-.3.39-.17.28-.27.59-.31.94-.04.37,0,.8.11,1.28,0,.02,0,.04.02.08,0,.03.01.06.02.07.84-.39,1.64-.74,2.39-1.04m-3.04,1.69s0,0,0-.01c0,0,0-.01,0-.01-.04.02-.1.05-.19.1s-.15.08-.19.1c-.49.26-.83.45-1.01.57,0,0-.04.02-.09.06-.05.04-.09.06-.1.07-.02.01-.05.03-.09.07-.04.03-.07.06-.1.08-.02.02-.04.05-.07.08-.03.03-.05.06-.07.1-.05.09-.04.18,0,.25.05.07.13.11.24.13.39.05.77-.04,1.14-.26.23-.13.39-.31.47-.54.08-.23.1-.49.04-.77"/>
    <path class="cls-1" d="m49.29,12.61c-4.32,1.07-8.68-1.56-9.75-5.87-.6-2.43-.03-4.88,1.35-6.74-2.74,1.96-4.15,5.46-3.29,8.93,1.13,4.54,5.72,7.31,10.26,6.18,2.94-.73,5.13-2.91,6.01-5.59-1.07,1.49-2.66,2.62-4.58,3.1"/>
    <path class="cls-1" d="m38.48,21.79c-.17-.09-.32-.22-.49-.32-.26-.14-.51-.35-.79-.38-1.73-.21-3.46-.35-5.2-.08-.35.05-2.39,2.86-1.41,5.53.04.1,2.09.68,2.54.77.47.09.95.17,1.42.22.16.02,3.43-1.14,3.58-1.64-.25,0-.44-.03-.63-.01-.66.07-1.32.23-1.97.22-.85-.02-1.71-.14-2.55-.28-.43-.07-.83-.27-1.25.07-.18-.28-.14-.49.13-.62.36-.18.66-.43.97-.67.4-.3,1.02-.35,1.56-.39.6-.05,1.24-.08,1.81.08.59.17,1.13.56,1.68.87.23.13.42.3.75.53,0-.33.01-.55.02-.81.06-.19.2-.43.22-.69.03-.51-.44-.76-.75-.96-.62-.4-1.36-.45-2.11-.35-.24.03-.49-.1-.74-.15-.02-.06-.03-.11-.05-.17.24-.1.48-.28.73-.28.6,0,1.21,0,1.78.13.53.13,1.02.43,1.52.67.14.07.26.18.42.24-.1-.75-.58-1.18-1.2-1.51"/>
    <path class="cls-1" d="m21.57,24.15s.02-.02.03-.02c.5-.29,1.26-.34,1.85-.21.57.12,1.08.56,1.57.93.21.16.3.5.45.76-.45.02-.79,0-1.13.05-.53.09-1.07.2-1.58.35-.55.16-1.07.16-1.58-.02-.04.25-.08.51-.12.77.68.39,1.37.71,2.18.61.08,0,1.1-.59,1.65-.37.24.1,1.18-.2,1.3,0,.43-1.01.68-2,.62-3.02-.04-.71-.84-2.38-.96-2.53-.18-.21-.39-.45-.64-.51-.39-.11-.82-.09-1.23-.11-.48-.03-.95,0-1.41.09-.2.51-.93,2.91-1.01,3.22"/>
    <path class="cls-1" d="m29.67,19.96h-3.61s-.08-.02-.11-.02c-.04,0-.1,0-.14,0-.03,0-.07-.02-.11-.03-.08,0-.06,0-.12-.02-.04,0-.1,0-.13,0-.02,0-.01-.01-.05-.02-.02,0-.03,0-.06,0-.06,0-.06-.01-.12-.02-.05,0-.09,0-.14,0-.04,0-.07-.02-.11-.03-.06,0-.07,0-.12-.01-.03-.01-.08-.02-.11-.03-.08-.03-.04,0-.1-.04-.01,0,0,0-.01,0-.08-.03-.18-.11-.21-.19,0-.01,0-.04-.01-.06,0-.03-.01-.02-.01-.06,0-.11-.01-.14.02-.23.02-.05.1-.12.14-.16.07-.06.1-.04.18-.07.04-.02.07-.03.12-.03h.42c.05,0,.08.03.14.03.02,0,.06,0,.08,0l.07.02c.07.01.1,0,.16.02.08.03.74.01.86.01.09,0,.26,0,.34,0,.05,0,.06.03.14.03.05,0,.22,0,.26,0,.03,0,.04.02.07.02.06,0,.11,0,.17,0h.18c.06,0,.07.03.15.03h2.6c.05,0,.06-.03.19-.03.05,0,.19,0,.23,0,.03,0,.05-.02.08-.02.03,0,.08,0,.11,0,.04,0,.06-.02.09-.02l.1-.02s.07,0,.1-.01c.05,0,.1-.02.13-.04.01,0,.03,0,.04-.01l.1-.02s.07,0,.1-.01c.01,0,.04,0,.05-.01.02,0,.02-.01.04-.02.09-.03.28-.07.35-.1.05-.02.08-.02.13-.04.03,0,.01,0,.04-.02.02,0,.03,0,.05,0,.02,0,.01,0,.04-.02.01,0,.04,0,.05,0,.07-.01.06-.03.11.03.02.02.04.02.08.03.05.01.12.04.13.08.01.04-.01.05-.03.07-.07.06.01.11-.18.16-.06.01,0,.09-.07.15-.02.02-.04.04-.07.04-.03.01-.03.02-.06.03-.08.03-.11.01-.17.08-.03.03-.08.07-.12.09-.06.04-.09.07-.16.09l-.13.06s0,0-.04.02c-.02,0-.01.01-.03.02-.01,0-.01,0-.02,0-.01,0,0,0-.02,0-.02,0-.02,0-.05.01-.05,0-.03.02-.08.03l-.17.05s-.05,0-.1.02l-.14.03s-.02.01-.04.01c-.09.02-.28-.02-.39.01-.02,0-.02.01-.04.01-.09.02-.24-.01-.34,0-.05.01-.03.02-.09.02-.18,0-.15.02-.2.03-.04,0-.06,0-.1,0-.05,0-.03.02-.1.02-.04,0-.07,0-.11,0-.02,0-.03,0-.04,0-.03,0-.01,0-.05,0m-4.46-3.07s.19.05.23.05c.15,0,.58-.02.69.01.04.01.08.01.12.01.16,0,.1.03.25.03.16,0,.09.03.25.03.05,0,.08.02.11.02.04,0,.09,0,.14,0,.04,0,.07.02.11.03.04,0,.09,0,.14,0,.06,0,.06.02.11.02h.42c.17,0,1.31.01,1.39,0,.03,0,.02-.01.05-.02.05,0,.1.01.19-.02.05-.02.08,0,.14-.01.05,0,.08-.02.11-.03.05,0,.22,0,.28,0,.05,0,.09,0,.13-.01.15-.04.38.01.53-.03.05-.02.35,0,.41,0,.04,0,.1,0,.14,0,.04,0,.07-.02.11-.03.06,0,.07,0,.12-.02.05-.02.08,0,.13,0,.04,0,.07-.02.11-.03.04,0,.07-.02.12-.02.07,0,.05,0,.11-.02l.11-.03c.05-.01.08,0,.12-.01.05-.02.07-.02.13-.02.04,0,.07-.02.11-.03.09-.01.15.02.26-.01.17-.05.42.17.56.03.06-.06.12-.38.06-.44-.19-.18-.05-.11-.51-.11-.02,0-.14.07-.15.1,0,.02-.03-.01-.05-.02-.06-.02-.2-.01-.27,0-.05,0-.08.02-.11.03-.11.01-.09-.02-.26.02-.04.01-.09,0-.14,0-.19,0-.11.03-.24.03-.15,0-.09.03-.26.02-.12,0-.03.03-.24.03-.17,0-.25,0-.4.02-.32.02-.64.01-.96.01-.08,0-.35,0-.41,0-.09-.03-.42-.02-.55-.02-.09,0-.03-.03-.25-.03-.13,0-.06-.03-.25-.03-.05,0-.07-.01-.11-.02-.08-.02-.18.01-.26-.01-.04-.01-.07-.01-.12-.01-.05,0-.07-.01-.11-.02-.04,0-.09,0-.13,0-.05-.01-.05-.02-.11-.02l-.23-.05s-.04,0-.07,0c-.01,0-.03,0-.05-.01-.05-.01-.09,0-.13-.01-.17-.05-.17,0-.25-.03-.17-.04-.17,0-.25-.03-.05-.01-.06-.02-.11-.02l-.4-.09c-.1-.03-.04-.01-.11-.02-.07,0-.15-.05-.31,0-.06.02-.07,0-.13.01-.03,0-.07.03-.11.02-.01.02-.02,0-.06.03-.08.05-.2.15-.22.25,0,.05,0,.13,0,.18,0,.04,0,.05,0,.08.02.08.2.23.25.26.02,0,.02,0,.04.01.02.01,0,0,.03.02.02,0,.02,0,.03.02m0,1.61c.06,0,.04,0,.08.02.04.01.01-.01.07.02.03.02.04,0,.07.02.03.02,0,.01.07.02.06,0,.03.01.06.02.02,0,.09,0,.12,0,.05.01-.01.02.13.02h.73c.07,0,.31.01.36,0,.02,0,0-.01.07-.02.18-.01.9.01,1.01,0,0-.05,0,0-.02-.11,0-.06-.02-.02-.03-.11,0-.08,0-.2,0-.28,0-.09.02-.06.03-.1,0-.03,0-.03.02-.05,0-.01,0,0,.01-.02.03-.06.02-.04.09-.1.01-.01.06-.05.06-.06,0-.01,0,0,0-.01-.04-.01-.11,0-.16,0-.11,0,0-.02-.14-.03-.02,0-.06,0-.07,0-.04-.01,0-.02-.07-.02-.12,0-.06,0-.1-.02-.02,0-.08,0-.12-.01-.08-.03-.09,0-.14-.03-.08-.03-.11,0-.23-.02-.06,0,0-.02-.06-.02-.02,0-.07,0-.09,0-.13,0-.08-.02-.14-.03-.08,0-.27,0-.33,0-.06-.01.03-.02-.15-.02h-1.18s-.05,0-.08,0c-.08.04-.1,0-.14.03-.05.03-.02-.01-.09.03-.02.01-.01,0-.03,0-.02,0-.02.02-.03.02-.03.02,0-.01-.06.03-.02.01-.02,0-.04.02l-.2.19s-.01.03-.02.06c0,.05-.06.08,0,.19,0,.01,0,0,.02.02.03.06-.01,0,.05.08.06.07.07.05.1.07.01,0,.03.02.04.04.03.03.13.04.13.04.01,0,0,.01.02.02.08.05.14,0,.16.06,0,0,.05,0,.06.01.02,0,.01.01.05.02.01,0,.05,0,.06,0,.02,0,.01.02.04.02m6.79-.39s0,0,0,0h0s.04-.03.09-.03c.15-.02.02-.05.2-.06.05,0,0,0,.04-.01.03-.01.06,0,.1-.02.06-.03.14-.01.16-.02.09-.04.08-.13.09-.15.03,0,.04,0,.07,0,.04,0,.03,0,.05-.02.02-.01.06-.05.07-.07,0,0,0-.12,0-.13,0-.04-.01-.02-.02-.04,0-.01,0-.01,0-.03-.01-.02,0,0-.02-.02-.06-.06-.04-.07-.14-.07-.08,0,0,.02-.11.03-.08,0,0,.02-.11.03-.08,0-.02.04-.18.03-.04,0-.02,0-.05-.02-.02,0-.18,0-.21,0-.07,0,.03.02-.18.03-.05,0-.03,0-.05.02-.03.02-.09,0-.12.02-.02.01,0,.01-.05.02-.02,0-.05,0-.07,0-.04,0-.02.01-.05.02-.02,0-.03,0-.05,0-.03.01,0,.02-.04.02-.02,0-.05,0-.07,0-.03,0,0,.01-.05.02-.02,0-.04,0-.07,0-.05,0-.02,0-.05.02-.04.01-.16,0-.2,0-.08,0,.02.01-.11.03-.07,0,.01.03-.18.03-.06,0-.05,0-.06.01-.03.01-.08.01-.12.01-.05,0-.03,0-.05.02-.08.03-.94-.01-1.02.02v.02s.02.03.03.05l.07.14s0,.04.03.08c.02.03,0,.06.02.09,0,.02.01,0,.02.04,0,0,0,.04,0,.05,0,.03,0,.07,0,.11,0,.08,0,.08.03.08.06,0,.17,0,.23,0,.07,0,.04-.01.09-.02.09-.02.4,0,.44-.01.03-.01,0,0,.04-.02.05,0,.12,0,.17,0,.09,0,0-.03.19-.03.09,0,0-.03.2-.03.09,0,.05,0,.09-.02.03,0,.07,0,.1,0,.07,0,.03-.02.08-.02.12,0,.05-.01.09-.02.04-.01.05,0,.1-.02.04-.02.06,0,.1-.02.03-.01,0-.01.03-.02.02,0,.03,0,.05,0,.02,0,.01-.01.03-.02.01,0,.04,0,.05,0,.06,0,.02-.02.08-.03.06,0,.02-.02.08-.03.05,0,.04-.03.1-.02m-2.63-.19s-.02,0-.05-.06c-.04-.08-.05-.12-.15-.18-.05-.03-.11-.05-.18-.05-.07,0-.16,0-.23,0l-.13.03s-.12.02-.19.09c-.09.08-.07,0-.15.08-.02.02-.04.04-.06.05-.07.07-.07.06-.1.12,0,.02-.02.06-.03.08-.01.03,0,.17,0,.22l.03.13s0,0,.02.04c0,.02,0,.02.01.04.03.05.03.03.05.06.01.02,0,.02.02.04.04.06.1.09.14.13.02.02.03.02.07.04.09.04.14.02.27.02.09,0,.12-.03.21-.02,0,0,0,0,.01-.01.04-.02.06-.03.11-.03.07,0,.08-.02.13-.04.08-.03.21-.12.24-.19.02-.03.02-.01.03-.05.03-.11.04-.08.03-.22,0-.03-.04-.17-.05-.2,0-.03-.03-.07-.05-.09,0-.01,0-.02,0-.03"/>
    <path class="cls-1" d="m25.26,37.77c.56.78,1.04,1.3,2.12,1.01.92-.26,1.96-.14,2.92-.02,1.09.12,1.42.05,2.01-1.01-2.34-.97-4.67-.94-7.06.02"/>
    <path class="cls-1" d="m27.03,32.46c0-.12-.02-.23-.02-.33-.05-.38-.12-.78.4-.87.5-.07.8.17.88.66.02.07.02.14.07.19.14.14.33.38.48.38.16-.03.35-.24.47-.4.09-.09.02-.31.12-.38.26-.19.54-.38.82-.43.1,0,.28.43.38.66.05.14-.02.31-.05.54.73-.14.99-.73.69-1.39-.33-.73-1.79-1.58-2.6-1.44-.87.14-1.68.49-2.19,1.27-.47.68-.19,1.46.57,1.53"/>
    <path class="cls-1" d="m26.23,35.74c1.72-.49,3.47-.52,5.19.03.42.12.73.61,1.11.89.52.4,1.09.56,1.84.24-.88-.9-1.7-1.7-2.45-2.55-.54-.61-1.21-.73-2.01-.66-.73.05-1.49-.02-2.24.02-.49.02-1.16,0-1.49.28-1.02.87-1.91,1.89-2.95,2.95.87.28,1.46.07,2-.38.33-.28.61-.71.99-.83"/>
    <path class="cls-1" d="m47.05,4.48c-3.03,0-5.98.55-8.77,1.54l-1.64.64c-2.88,1.25-5.55,3-7.86,5.25-.08.07-1.2,1.32-1.68,1.89.62-.22,1.04-.53,1.68-.7.21-.05.47-.07.69,0,2.88.78,5.72,2.09,8.01,4.05,3.82,3.26,5.17,7.46,4.58,12.34-.33,2.79-1.25,5.41-2.43,7.93-.12.26-.24.5-.43.92.73-.28,1.27-.47,2-.75-.99,2.71-1.98,5.24-3.87,7.39-4.48-3.89-8.93-4.49-13.4-1.65,4.43,8.14,13.06,13.67,22.99,13.67.03,0,.05,0,.08,0,.02,0,.04.01.06.01,14.48,0,26.26-11.78,26.26-26.26S61.53,4.48,47.05,4.48m-4.97,13.81c-.97-.2-1.58-.83-2.41-1.66h1.38c.03-.1.03-.2.06-.3-.69-.3-1.38-.6-2.05-.89-.66-.3-1.55.03-2.13-1.09.83-.33,1.58-.63,2.3-.93-.03-.13-.03-.23-.06-.36-1.47-.73-2.91-.3-4.34.43.14-2.68,1.85-4.07,3.54-2.72,1.49,1.22,2.88,2.58,4.21,4.04,1.19,1.33,2.21,2.92,3.29,4.37.22.3.39.66.44,1.16-.22-.17-.42-.36-.64-.46-1.19-.56-2.35-1.32-3.6-1.59m1.78,28.86c-.12.43-.33.87-.61,1.2-.57.71-1.59,1.22-2.31.66-2.66-2.1-.5-6.29-.48-7.52.14.21,0,4.68,1.79,4.68,1.09,0,.83-2.82.76-3.65-.07-.66-.28-1.3-.4-1.96-.05-.24-.07-.47-.1-.71.07-.03.14-.05.21-.07.17.26.4.5.52.78.87,2.12,1.18,4.32.61,6.59m-.2-23.15c1.05.42,2.27,1.43,3.32,2.59,1.29,1.43,2.32,3.09,2.44,4.18-1.88-1.51-3.75-3.05-5.63-4.59,1.49-.53.04-1.37-.13-2.17m6.15,31.92c-.37-1.95-.6-3.96-.78-5.95-.14-1.51-.38-2.95-1.02-4.32-.9-1.96-1.37-3.97-1.32-6.14.02-.73-.11-1.46-.23-2.27-.04-.31.4-.43.5-.14,0,0,0,0,0,0,.26.73.2,1.91.25,2.67.17,2.08,1.05,3.54,2.14,5.33,1.18,1.94,1.49,4.18,1.68,6.4.12,1.39.22,2.78.32,4.17-.51.09-1.02.18-1.54.24m3.84-.75c.85-.88,1.3-3.08,1.36-4.22.14-2.6-1.5-4.21-2.94-6.43-.9-1.37-.54-3.59-.73-5.22-.33-2.64-2.25-4.36-3.52-6.68-.26-.46-.52-.91-.78-1.37-.09-.15.06-.2.24-.18,1.33.09,2.15,1.37,3.2,4.41.58-7.39-.78-9.86-4.88-12.62-.37-.25-1.64-1.49-1.78-1.91-.12-.36-.24-.73-.12-.59.46.55,1.01,1.69,2.18,1.71.86.01,1.67,1.93,2.52,2.42-1.24-2.42.89-7.6-3.81-9.46-3.08-1.22-4.11-6.62-6.31-8.05,2.78-1.03,5.73-1.58,8.76-1.58,13.97,0,25.34,11.36,25.34,25.33,0,11.68-7.96,21.52-18.73,24.44"/>
  </g>
</svg>