<svg width="38" height="38" viewBox="0 0 38 38" fill="none" xmlns="http://www.w3.org/2000/svg">
<rect width="38" height="38" rx="19" fill="#CECECE"/>
<path d="M26.5025 16.2148C25.8711 15.5365 24.9193 15.1424 23.6 15.0049V14.3083C23.6 13.0526 23.0534 11.8428 22.0921 10.9996C21.1215 10.138 19.8586 9.7347 18.5487 9.85385C16.2964 10.0647 14.4022 12.1819 14.4022 14.4733V15.0049C13.0828 15.1424 12.131 15.5365 11.4996 16.2148C10.5855 17.2047 10.6137 18.5245 10.7174 19.4411L11.3771 24.5463C11.575 26.3336 12.3195 28.1667 16.3718 28.1667H21.6303C25.6827 28.1667 26.4271 26.3336 26.625 24.5555L27.2847 19.4319C27.3884 18.5245 27.4072 17.2047 26.5025 16.2148ZM18.6807 11.1279C19.623 11.0454 20.5183 11.3295 21.2157 11.9436C21.9036 12.5485 22.29 13.4101 22.29 14.3083V14.9499H15.7121V14.4733C15.7121 12.8418 17.0974 11.2745 18.6807 11.1279ZM15.6273 20.0552H15.6179C15.0995 20.0552 14.6755 19.6427 14.6755 19.1386C14.6755 18.6345 15.0995 18.222 15.6179 18.222C16.1456 18.222 16.5697 18.6345 16.5697 19.1386C16.5697 19.6427 16.1456 20.0552 15.6273 20.0552ZM22.2241 20.0552H22.2146C21.6963 20.0552 21.2722 19.6427 21.2722 19.1386C21.2722 18.6345 21.6963 18.222 22.2146 18.222C22.7424 18.222 23.1665 18.6345 23.1665 19.1386C23.1665 19.6427 22.7424 20.0552 22.2241 20.0552Z" fill="#1A1A1A"/>
</svg>
