<svg width="140" height="140" viewBox="0 0 140 140" fill="none" xmlns="http://www.w3.org/2000/svg">
<circle cx="70" cy="70" r="70" fill="#F0EEEE"/>
<path fill-rule="evenodd" clip-rule="evenodd" d="M107.079 33L99.5088 40.5699V75.2943C99.5132 77.9367 98.5264 80.4847 96.7434 82.4349C94.9603 84.3851 92.5108 85.5956 89.8785 85.8274V64.7381C89.8785 60.8763 88.3444 57.1726 85.6137 54.4419C82.8829 51.7111 79.1793 50.177 75.3174 50.177H54.1587V43.5794C54.1648 40.7754 55.2814 38.0881 57.2641 36.1054C59.2468 34.1227 61.9341 33.0061 64.7381 33H107.079Z" fill="#553236"/>
<path fill-rule="evenodd" clip-rule="evenodd" d="M67.7243 73.72C67.1906 73.8279 66.6909 74.0632 66.2677 74.4058C65.8445 74.7484 65.5103 75.1882 65.2936 75.6877C65.1097 75.9895 64.8513 76.2388 64.5432 76.4119C64.2351 76.585 63.8877 76.6758 63.5343 76.6758C63.1809 76.6758 62.8334 76.585 62.5253 76.4119C62.2172 76.2388 61.9588 75.9895 61.7749 75.6877C61.5409 75.1068 61.1424 74.6069 60.6284 74.2491C60.1144 73.8914 59.5072 73.6914 58.8812 73.6737C58.2234 73.6632 57.5862 73.9032 57.0987 74.345C55.8486 75.5256 56.0106 78.4425 57.4922 81.2899C59.019 83.7136 61.0872 85.7502 63.5343 87.2393C65.9677 85.7605 68.0274 83.7405 69.5532 81.3362C71.0579 78.4888 71.2199 75.5719 69.9699 74.3913C69.6716 74.1155 69.3142 73.9116 68.925 73.7952C68.5357 73.6789 68.1251 73.6531 67.7243 73.72Z" fill="#553236"/>
<path fill-rule="evenodd" clip-rule="evenodd" d="M75.3406 54.1587H51.1261C48.3222 54.1648 45.6348 55.2814 43.6522 57.2641C41.6695 59.2468 40.5529 61.9341 40.5468 64.7381V99.4625L33 107.079H75.3406C78.1465 107.079 80.8374 105.964 82.8214 103.98C84.8054 101.996 85.92 99.3051 85.92 96.4993V64.7381C85.9139 61.9341 84.7973 59.2468 82.8146 57.2641C80.8319 55.2814 78.1446 54.1648 75.3406 54.1587ZM73.0257 83.0957C70.8983 86.4622 67.9821 89.2592 64.5298 91.2444C64.2112 91.446 63.8419 91.5531 63.4649 91.5531C63.0878 91.5531 62.7186 91.446 62.4 91.2444C58.9169 89.2553 55.9757 86.4412 53.8346 83.0494C51.5197 78.5352 51.5197 73.9748 54.2513 71.4746C54.9979 70.7832 55.8937 70.2731 56.8693 69.9841C57.8449 69.695 58.874 69.6347 59.8767 69.8078C61.2003 70.0321 62.4306 70.6351 63.4186 71.544C64.4066 70.6351 65.6368 70.0321 66.9605 69.8078C67.9632 69.6329 68.9927 69.6923 69.9686 69.9815C70.9445 70.2707 71.8403 70.7817 72.5858 71.4746C75.2249 73.9748 75.3638 78.5352 72.9794 83.0957H73.0257Z" fill="#553236"/>
</svg>
