<svg width="140" height="140" viewBox="0 0 140 140" fill="none" xmlns="http://www.w3.org/2000/svg">
<circle cx="70" cy="70" r="70" fill="#DFEAE2"/>
<path fill-rule="evenodd" clip-rule="evenodd" d="M61.9963 53.9933V32.6666H96.6697C99.4978 32.6666 102.21 33.7901 104.21 35.7898C106.21 37.7896 107.333 40.5019 107.333 43.33V53.9933H61.9963ZM96.6697 41.86H69.9997V47.2033H96.6697V41.86Z" fill="#40744D"/>
<path fill-rule="evenodd" clip-rule="evenodd" d="M32.6668 59.3367H56.6768V80.6633H32.6668V59.3367ZM45.9901 72.66C46.5162 72.66 47.0305 72.504 47.4679 72.2117C47.9053 71.9194 48.2463 71.504 48.4476 71.0179C48.6489 70.5319 48.7016 69.9971 48.599 69.4811C48.4963 68.9651 48.243 68.4911 47.871 68.1191C47.499 67.7471 47.025 67.4938 46.509 67.3911C45.993 67.2885 45.4582 67.3412 44.9722 67.5425C44.4861 67.7438 44.0707 68.0848 43.7784 68.5222C43.4861 68.9596 43.3301 69.4739 43.3301 70C43.3301 70.7055 43.6103 71.3821 44.1092 71.8809C44.608 72.3798 45.2846 72.66 45.9901 72.66Z" fill="#40744D"/>
<path fill-rule="evenodd" clip-rule="evenodd" d="M61.9963 59.3367H107.333V80.6633H61.9963V59.3367ZM96.6697 72.66V67.34H69.9997V72.6833L96.6697 72.66Z" fill="#40744D"/>
<path fill-rule="evenodd" clip-rule="evenodd" d="M56.6768 53.9933H32.6668V43.33C32.6668 40.5019 33.7902 37.7896 35.79 35.7898C37.7897 33.7901 40.502 32.6666 43.3301 32.6666H56.6768V53.9933ZM46.0134 42.1166C45.4873 42.1166 44.973 42.2726 44.5356 42.5649C44.0982 42.8572 43.7572 43.2726 43.5559 43.7587C43.3546 44.2447 43.3019 44.7796 43.4045 45.2956C43.5072 45.8116 43.7605 46.2855 44.1325 46.6575C44.5045 47.0295 44.9785 47.2829 45.4945 47.3855C46.0105 47.4882 46.5453 47.4355 47.0314 47.2341C47.5174 47.0328 47.9328 46.6919 48.2251 46.2544C48.5174 45.817 48.6734 45.3027 48.6734 44.7766C48.6734 44.4253 48.6039 44.0775 48.4687 43.7533C48.3336 43.429 48.1356 43.1347 47.8861 42.8874C47.6366 42.6401 47.3406 42.4447 47.0152 42.3124C46.6898 42.1801 46.3414 42.1135 45.9901 42.1166H46.0134Z" fill="#40744D"/>
<path fill-rule="evenodd" clip-rule="evenodd" d="M56.6768 86.0066V107.333H43.3534C41.9511 107.336 40.562 107.063 39.2656 106.528C37.9691 105.994 36.7909 105.209 35.7982 104.218C34.8056 103.228 34.018 102.051 33.4807 100.756C32.9433 99.4607 32.6668 98.0722 32.6668 96.6699V86.0066H56.6768ZM45.9901 97.9999C46.5162 97.9999 47.0305 97.8439 47.4679 97.5516C47.9053 97.2593 48.2463 96.8439 48.4476 96.3579C48.6489 95.8718 48.7016 95.337 48.599 94.821C48.4963 94.305 48.243 93.831 47.871 93.459C47.499 93.087 47.025 92.8337 46.509 92.731C45.993 92.6284 45.4582 92.6811 44.9722 92.8824C44.4861 93.0837 44.0707 93.4247 43.7784 93.8621C43.4861 94.2995 43.3301 94.8138 43.3301 95.3399C43.3301 96.0454 43.6103 96.722 44.1092 97.2208C44.608 97.7197 45.2846 97.9999 45.9901 97.9999Z" fill="#40744D"/>
<path fill-rule="evenodd" clip-rule="evenodd" d="M61.9963 86.0066H107.333V96.6699C107.333 99.498 106.21 102.21 104.21 104.21C102.21 106.21 99.4978 107.333 96.6697 107.333H61.9963V86.0066ZM96.6697 97.9999V92.6799H69.9997V97.9999H96.6697Z" fill="#40744D"/>
</svg>
