<svg width="38" height="38" viewBox="0 0 38 38" fill="none" xmlns="http://www.w3.org/2000/svg">
<rect width="38" height="38" rx="19" fill="#F4F4F4"/>
<path d="M27.3337 15.2917C27.3337 15.8417 26.8837 16.2917 26.3337 16.2917H11.667C11.117 16.2917 10.667 15.8417 10.667 15.2917V15.2834C10.667 13.375 12.2087 11.8334 14.117 11.8334H23.8753C25.7837 11.8334 27.3337 13.3834 27.3337 15.2917Z" fill="#696969"/>
<path d="M10.667 18.5416V22.7166C10.667 24.625 12.2087 26.1666 14.117 26.1666H23.8753C25.7837 26.1666 27.3337 24.6166 27.3337 22.7083V18.5416C27.3337 17.9916 26.8837 17.5416 26.3337 17.5416H11.667C11.117 17.5416 10.667 17.9916 10.667 18.5416ZM15.667 23.375H14.0003C13.6587 23.375 13.3753 23.0916 13.3753 22.75C13.3753 22.4083 13.6587 22.125 14.0003 22.125H15.667C16.0087 22.125 16.292 22.4083 16.292 22.75C16.292 23.0916 16.0087 23.375 15.667 23.375ZM21.0837 23.375H17.7503C17.4087 23.375 17.1253 23.0916 17.1253 22.75C17.1253 22.4083 17.4087 22.125 17.7503 22.125H21.0837C21.4253 22.125 21.7087 22.4083 21.7087 22.75C21.7087 23.0916 21.4253 23.375 21.0837 23.375Z" fill="#696969"/>
</svg>
