<svg width="225" height="38" viewBox="0 0 225 38" fill="none" xmlns="http://www.w3.org/2000/svg">
<rect width="38" height="38" rx="19" fill="#E5F6FF"/>
<path d="M26.5025 16.2147C25.8711 15.5365 24.9193 15.1424 23.6 15.0049V14.3083C23.6 13.0526 23.0534 11.8427 22.0921 10.9995C21.1215 10.1379 19.8586 9.73466 18.5487 9.85381C16.2964 10.0646 14.4022 12.1819 14.4022 14.4733V15.0049C13.0828 15.1424 12.131 15.5365 11.4996 16.2147C10.5855 17.2046 10.6137 18.5245 10.7174 19.441L11.3771 24.5463C11.575 26.3335 12.3195 28.1667 16.3718 28.1667H21.6303C25.6827 28.1667 26.4271 26.3335 26.625 24.5554L27.2847 19.4319C27.3884 18.5245 27.4072 17.2046 26.5025 16.2147ZM18.6807 11.1278C19.623 11.0453 20.5183 11.3295 21.2157 11.9436C21.9036 12.5485 22.29 13.4101 22.29 14.3083V14.9499H15.7121V14.4733C15.7121 12.8418 17.0974 11.2745 18.6807 11.1278ZM15.6273 20.0551H15.6179C15.0995 20.0551 14.6755 19.6427 14.6755 19.1386C14.6755 18.6345 15.0995 18.222 15.6179 18.222C16.1456 18.222 16.5697 18.6345 16.5697 19.1386C16.5697 19.6427 16.1456 20.0551 15.6273 20.0551ZM22.2241 20.0551H22.2146C21.6963 20.0551 21.2722 19.6427 21.2722 19.1386C21.2722 18.6345 21.6963 18.222 22.2146 18.222C22.7424 18.222 23.1665 18.6345 23.1665 19.1386C23.1665 19.6427 22.7424 20.0551 22.2241 20.0551Z" fill="#158FCF"/>
<rect x="187" width="38" height="38" rx="19" fill="#E5F6FF"/>
<path d="M214.334 15.2917C214.334 15.8417 213.884 16.2917 213.334 16.2917H198.667C198.117 16.2917 197.667 15.8417 197.667 15.2917V15.2833C197.667 13.375 199.209 11.8333 201.117 11.8333H210.875C212.784 11.8333 214.334 13.3833 214.334 15.2917Z" fill="#158FCF"/>
<path d="M197.667 18.5417V22.7167C197.667 24.625 199.209 26.1667 201.117 26.1667H210.875C212.784 26.1667 214.334 24.6167 214.334 22.7083V18.5417C214.334 17.9917 213.884 17.5417 213.334 17.5417H198.667C198.117 17.5417 197.667 17.9917 197.667 18.5417ZM202.667 23.375H201C200.659 23.375 200.375 23.0917 200.375 22.75C200.375 22.4083 200.659 22.125 201 22.125H202.667C203.009 22.125 203.292 22.4083 203.292 22.75C203.292 23.0917 203.009 23.375 202.667 23.375ZM208.084 23.375H204.75C204.409 23.375 204.125 23.0917 204.125 22.75C204.125 22.4083 204.409 22.125 204.75 22.125H208.084C208.425 22.125 208.709 22.4083 208.709 22.75C208.709 23.0917 208.425 23.375 208.084 23.375Z" fill="#158FCF"/>
<line x1="35" y1="18.7" x2="190" y2="18.7" stroke="#158FCF" stroke-width="0.6" stroke-dasharray="4 4"/>
</svg>
