<svg width="140" height="140" viewBox="0 0 140 140" fill="none" xmlns="http://www.w3.org/2000/svg">
<circle cx="70" cy="70" r="70" fill="#F0EEEE"/>
<g clip-path="url(#clip0_1022_16212)">
<path d="M37.278 61.7993C39.6013 61.7993 41.9246 61.8037 44.2479 61.7949C44.6001 61.7927 44.9655 61.7751 45.298 61.6783C46.0703 61.4516 46.4815 60.886 46.4662 60.085C46.4509 59.2883 46.0287 58.736 45.2455 58.5335C44.9327 58.4521 44.5979 58.4323 44.272 58.4323C39.6254 58.4257 34.9788 58.4257 30.3343 58.4323C29.9821 58.4323 29.6146 58.4477 29.2821 58.5467C28.5536 58.7646 28.1467 59.2817 28.1204 60.0586C28.0942 60.8376 28.4748 61.3856 29.1836 61.6452C29.5315 61.7729 29.9318 61.7905 30.3103 61.7927C32.6336 61.8059 34.9547 61.7993 37.278 61.7993ZM45.3396 46.9448C46.2146 46.9448 47.0897 46.9602 47.9626 46.9404C49.1002 46.914 49.8155 46.267 49.8309 45.2877C49.8484 44.3106 49.1396 43.6064 48.0151 43.5866C46.2125 43.5558 44.4076 43.5558 42.6028 43.5866C41.4871 43.6064 40.752 44.3194 40.763 45.2745C40.7739 46.2296 41.5199 46.9118 42.6312 46.9404C43.5347 46.9624 44.4383 46.9448 45.3396 46.9448ZM45.3133 76.6538C46.1599 76.6538 47.0088 76.6538 47.8554 76.6538C47.9101 76.6538 47.9648 76.656 48.0195 76.6516C49.1352 76.5966 49.8505 75.9232 49.8352 74.9417C49.8199 73.9932 49.1352 73.3154 48.0479 73.2956C46.2168 73.2626 44.3857 73.2604 42.5547 73.2956C41.4849 73.3176 40.7761 74.024 40.7673 74.9527C40.7586 75.9078 41.5068 76.6142 42.6094 76.645C43.5085 76.6736 44.4098 76.6538 45.3133 76.6538Z" fill="white"/>
<path d="M112.118 62.5012C111.843 63.9778 111.683 65.4875 111.272 66.9245C108.075 78.1149 100.858 85.1394 89.513 87.5601C82.333 89.0918 75.5753 87.624 69.347 83.7156C69.2551 83.6584 69.1611 83.6011 69.0648 83.5461C69.0451 83.5351 69.0145 83.5439 68.8876 83.5439C67.3672 85.1702 65.7942 86.8471 64.2279 88.5284C58.8221 94.325 53.4317 100.137 48.0085 105.916C45.3964 108.7 41.2879 108.786 38.6321 106.18C35.9216 103.517 35.9544 99.2897 38.759 96.6313C44.4885 91.1978 50.2421 85.7908 55.9847 80.3728C57.6758 78.7773 59.3647 77.1774 60.9398 75.6875C59.975 73.6057 59.0737 71.6163 58.1133 69.6533C58.0039 69.4289 57.5708 69.2484 57.2864 69.244C54.1974 69.2154 51.1084 69.2264 48.0172 69.2264C47.7985 69.2264 47.5797 69.2286 47.3609 69.2264C46.0418 69.2154 45.252 68.5948 45.2389 67.5605C45.2258 66.5262 46.0199 65.8638 47.3237 65.8594C50.2224 65.8506 53.1211 65.8572 56.0175 65.8572C56.3129 65.8572 56.6082 65.8572 56.9954 65.8572C56.8182 64.4862 56.6498 63.1988 56.4726 61.8454C55.2125 61.7639 53.7292 61.9114 53.7183 60.0056C53.7117 58.9163 54.3921 58.5378 56.4551 58.3881C56.6323 57.1117 56.8095 55.8177 57.002 54.4181C56.6935 54.4027 56.4113 54.3763 56.1269 54.3763C53.1473 54.3741 50.1655 54.3873 47.1859 54.3675C45.7114 54.3587 44.8407 53.1725 45.4051 51.9842C45.7902 51.1743 46.5121 51.0005 47.3237 51.0005C50.4127 51.0049 53.5017 51.0027 56.5929 51.0027C57.9471 51.0027 57.9252 50.9939 58.4458 49.7703C62.4755 40.292 69.5133 34.4625 79.5678 32.5347C93.8839 29.7927 108.268 39.513 111.433 53.9274C111.709 55.1795 111.888 56.4515 112.114 57.7147C112.118 59.3102 112.118 60.9057 112.118 62.5012ZM59.8963 61.841C60.5351 73.9028 70.9156 85.1988 85.2054 84.7719C98.6027 84.3714 109.34 72.7255 108.817 59.2178C108.29 45.5978 96.7848 34.83 83.3437 35.4638C68.8285 36.1482 60.2201 48.2298 59.9378 58.3771C61.2876 58.3771 62.6352 58.3771 64.0003 58.3771C64.0857 57.7323 64.1447 57.1337 64.2476 56.5418C66.1727 45.5076 76.7567 38.0276 87.7519 39.9267C102.862 42.5367 109.788 60.5998 100.333 72.7365C98.1827 75.4983 95.4897 77.5603 92.2913 78.9445C91.3703 79.3429 90.4471 79.0018 90.0599 78.1875C89.6486 77.3204 89.9943 76.4028 90.924 75.912C91.1406 75.7976 91.3681 75.7008 91.5891 75.5951C98.4955 72.3205 102.392 64.7943 101.105 57.2174C99.9503 50.4151 94.654 44.821 87.9947 43.3708C81.0795 41.8655 74.0002 44.7352 70.1171 50.622C68.5704 52.9657 67.6319 55.5272 67.3562 58.4365C68.4063 58.4365 69.3864 58.4123 70.3643 58.4453C71.0643 58.4695 71.6178 58.782 71.9197 59.4664C72.1932 60.0892 72.1363 60.7318 71.6572 61.1389C71.2547 61.4823 70.6684 61.7133 70.1368 61.7705C69.2267 61.8718 68.2969 61.7991 67.3409 61.7991C67.8266 66.0266 69.5067 69.5389 72.4513 72.4328C73.9543 73.9094 75.6978 75.0141 77.6033 75.8922C78.7146 76.405 79.0318 77.6021 78.3515 78.478C77.8461 79.1294 77.0695 79.2812 76.1397 78.8631C71.2087 76.6404 67.6056 73.0556 65.5645 68.0226C64.7704 66.0662 64.3613 63.9536 63.7553 61.841C62.6112 61.841 61.2833 61.841 59.8963 61.841ZM57.5139 83.4955C56.3501 84.5936 55.1556 85.7204 53.9589 86.8493C49.6558 90.9118 45.3548 94.9786 41.0429 99.0344C40.2029 99.8244 39.7828 100.762 39.9775 101.908C40.205 103.235 40.962 104.162 42.2483 104.576C43.5828 105.007 44.6985 104.609 45.648 103.588C50.3537 98.5305 55.0725 93.4865 59.7847 88.436C60.2266 87.9629 60.6554 87.4765 61.0339 87.0628C59.8394 85.848 58.6865 84.6839 57.5139 83.4955ZM60.1347 81.0154C61.3029 82.1883 62.3946 83.2842 63.5256 84.422C64.3898 83.4911 65.3129 82.4986 66.1836 81.5611C65.0964 80.474 64.0638 79.4375 62.9743 78.346C62.0555 79.2108 61.0667 80.1395 60.1347 81.0154Z" fill="black"/>
<path d="M37.278 61.7992C34.9547 61.7992 32.6314 61.8058 30.3081 61.7926C29.9296 61.7904 29.5293 61.7728 29.1814 61.6452C28.4726 61.3855 28.092 60.8397 28.1182 60.0585C28.1445 59.2817 28.5514 58.7645 29.2799 58.5466C29.6124 58.4476 29.9799 58.4322 30.3321 58.4322C34.9788 58.4256 39.6254 58.4256 44.2698 58.4322C44.5936 58.4322 44.9305 58.452 45.2433 58.5334C46.0265 58.7359 46.4487 59.2883 46.464 60.0849C46.4793 60.8837 46.0681 61.4493 45.2958 61.6782C44.9633 61.7772 44.5958 61.7948 44.2457 61.7948C41.9246 61.8036 39.6013 61.7992 37.278 61.7992Z" fill="black"/>
<path d="M45.3397 46.9448C44.4384 46.9448 43.5348 46.9624 42.6335 46.9404C41.52 46.9118 40.774 46.2296 40.7653 45.2745C40.7543 44.3194 41.4894 43.6042 42.6051 43.5866C44.4077 43.5558 46.2126 43.5558 48.0174 43.5866C49.1418 43.6064 49.8485 44.3106 49.8332 45.2877C49.8157 46.267 49.1025 46.914 47.9649 46.9404C47.0898 46.9602 46.2147 46.9448 45.3397 46.9448Z" fill="black"/>
<path d="M45.3133 76.6534C44.412 76.6534 43.5085 76.6732 42.6072 76.6468C41.5046 76.616 40.7586 75.9096 40.7652 74.9545C40.7717 74.0258 41.4827 73.3172 42.5525 73.2974C44.3836 73.2622 46.2147 73.2622 48.0457 73.2974C49.133 73.3172 49.82 73.995 49.8331 74.9435C49.8484 75.925 49.133 76.5984 48.0173 76.6534C47.9626 76.6556 47.9079 76.6556 47.8532 76.6556C47.0066 76.6534 46.16 76.6534 45.3133 76.6534Z" fill="black"/>
<path d="M59.8962 61.8408C61.2832 61.8408 62.6111 61.8408 63.7597 61.8408C64.3657 63.9534 64.7769 66.0661 65.5689 68.0225C67.61 73.0554 71.2109 76.6403 76.1441 78.8629C77.0738 79.2833 77.8526 79.1292 78.3558 78.4778C79.034 77.602 78.7168 76.4048 77.6076 75.892C75.7022 75.014 73.9586 73.9092 72.4557 72.4326C69.5111 69.5387 67.8309 66.0265 67.3453 61.799C68.3013 61.799 69.231 61.8716 70.1411 61.7704C70.6705 61.711 71.259 61.4799 71.6615 61.1388C72.1406 60.7295 72.1997 60.0891 71.9241 59.4663C71.6222 58.7819 71.0687 58.4694 70.3686 58.4452C69.3907 58.4122 68.4107 58.4364 67.3606 58.4364C67.6362 55.5249 68.5769 52.9655 70.1214 50.6218C74.0023 44.735 81.0838 41.8654 87.9991 43.3706C94.6561 44.8186 99.9547 50.4149 101.11 57.2172C102.396 64.7963 98.4999 72.3204 91.5934 75.595C91.3703 75.7006 91.1449 75.7974 90.9284 75.9119C89.9986 76.4026 89.6529 77.3181 90.0642 78.1873C90.4493 79.0016 91.3746 79.3427 92.2956 78.9444C95.494 77.558 98.187 75.4981 100.338 72.7363C109.793 60.5996 102.866 42.5366 87.7562 39.9266C76.761 38.0274 66.1749 45.5075 64.2519 56.5416C64.1491 57.1314 64.09 57.7322 64.0047 58.377C62.6418 58.377 61.292 58.377 59.9422 58.377C60.2222 48.2297 68.8329 36.148 83.3481 35.4636C96.7891 34.8298 108.294 45.5999 108.821 59.2176C109.344 72.7253 98.6071 84.3712 85.2098 84.7717C70.9155 85.1987 60.535 73.9004 59.8962 61.8408ZM78.1786 54.3717C79.0515 54.3717 79.9244 54.3893 80.7972 54.3673C81.9261 54.3387 82.6349 53.6785 82.6393 52.697C82.6436 51.7155 81.9458 51.0333 80.8148 51.0135C79.069 50.9827 77.3232 50.9849 75.5797 51.0135C74.4552 51.0311 73.7376 51.7133 73.7354 52.6816C73.7311 53.6763 74.4771 54.3497 75.6453 54.3717C76.4875 54.3849 77.3342 54.3717 78.1786 54.3717ZM85.9558 78.9092C85.9492 78.0113 85.1529 77.2323 84.2647 77.2565C83.405 77.2785 82.6546 78.0333 82.6371 78.896C82.6174 79.774 83.4093 80.5861 84.291 80.5927C85.1813 80.5971 85.9645 79.8048 85.9558 78.9092Z" fill="#F0EEEE"/>
<path d="M57.5139 83.4956C58.6865 84.684 59.8372 85.8481 61.036 87.0607C60.6597 87.4766 60.2288 87.9608 59.7869 88.4339C55.0746 93.4844 50.3558 98.5284 45.6501 103.585C44.7007 104.607 43.585 105.005 42.2505 104.574C40.9663 104.16 40.2072 103.233 39.9797 101.906C39.7828 100.76 40.205 99.8223 41.0451 99.0323C45.3548 94.9765 49.6558 90.9096 53.9611 86.8472C55.1556 85.7227 56.35 84.5937 57.5139 83.4956Z" fill="#553236"/>
<path d="M60.1348 81.0151C61.0667 80.1392 62.0555 79.2106 62.9744 78.3457C64.0638 79.4372 65.0986 80.4737 66.1837 81.5609C65.313 82.4984 64.3898 83.4909 63.5257 84.4217C62.3946 83.2862 61.303 82.1903 60.1348 81.0151Z" fill="#F0EEEE"/>
<path d="M78.1788 54.3716C77.3343 54.3716 76.4877 54.3848 75.6433 54.3694C74.475 54.3452 73.729 53.674 73.7334 52.6793C73.7378 51.7132 74.4532 51.0288 75.5776 51.0112C77.3234 50.9826 79.0691 50.9826 80.8127 51.0112C81.9437 51.031 82.6438 51.7132 82.6372 52.6947C82.6329 53.6762 81.9241 54.3364 80.7952 54.365C79.9267 54.3892 79.0516 54.3716 78.1788 54.3716Z" fill="black"/>
<path d="M85.9558 78.9091C85.9624 79.807 85.1814 80.597 84.2932 80.5926C83.4115 80.5882 82.6196 79.774 82.6393 78.8959C82.6568 78.0332 83.4072 77.2784 84.2669 77.2564C85.1529 77.2322 85.9492 78.0112 85.9558 78.9091Z" fill="black"/>
</g>
<defs>
<clipPath id="clip0_1022_16212">
<rect width="84" height="76" fill="white" transform="translate(28 32)"/>
</clipPath>
</defs>
</svg>
